,
  Hottest scene tracker on the net !!!   http://www.scenetime.com
 
         Please seed back after your download is completed

           Credit goes  to all seeders and  http://www.scenetime.com
 



...................................NFO:.................................................[IMG]http://leetleech.org/images/61822021545350453994.jpg[/IMG]



[b]The Other Guys 2010 R5 XViD AC3-LEGi0N



[img]http://leetleech.org/images/48874973695367351744.png[/img]

[color=red]General[/color]
Format: AVI
File size: 1.51 GiB
Duration: 1h 43mn
Overall bit rate: 2 092 Kbps
IMDb Rating:   6.9/10  (14 290 votes)
Genre:     Action | Comedy | Crime
Release:  6 August 2010 (USA)
iMDB Link: http://www.imdb.com/title/tt1386588/
ViDEO Link: http://www.youtube.com/watch?v=D6WOoUG1eNo
Source:    ViDEO (DVDR-FiCODVDR Thanks!!)  AUDiO (IMAGiNE|HiVE-CM8 Thanks !!)
Encoded By : DiLLoN



[color=red]Video[/color]
Format: MPEG-4 Visual
Format profile : Advanced Simple@L5
Format settings, QPel: No
Format settings, GMC: No warppoints
Format settings, Matrix: Default (H.263)
Muxing mode: Packed bitstream
Codec ID: XVID
Bit rate: 1 639 Kbps
Width:  720 pixels
Height: 304 pixels
Display aspect ratio: 2.35:1 
Frame rate: 25.000 fps
Chroma subsampling: 4:2:0
Bit depth: 8 bits
Scan type: Progressive
Bits/(Pixel*Frame): 0.300
Stream size: 1.18 GiB (78%)


[color=red]Audio[/color]
Format: AC3
Bit rate mode: Constant
Bit rate: 448 Kbps
Channel(s): 6 channels
Sampling rate: 48.0 KHz
Stream size: 330 MiB (22%)
IMAGiNE LiNE/STUDiO + AC3 effects of the russian audiotrack remastered by HiVE-CM8!




[img]http://leetleech.org/images/89524873606771859129.png[/img]
Terry Hoitz's past mistakes in the line of duty and Allen Gamble's 
reluctance to take risks have landed them the roles of the "Other Guys", 
disgraced New York City police detectives relegated to filling out paperwork 
for cocky hero cops Danson and Highsmith. The mismatched duo must look past 
their differences when they take on a high-profile investigation of shady 
capitalist David Ershon and attempt to fill the shoes of the notoriously 
reckless officers they idolize.



[color=red]Tagline:[/color]
N/A



[img]http://leetleech.org/images/84434050717770922575.png[/img]
Derek Jeter	 ...	Himself
Samuel L. Jackson	 ...	P.K. Highsmith
Dwayne Johnson	 ...	Christopher Danson
Larnell Stovall	 ...	Rasta
Jalil Jay Lynch	 ...	Rasta
Roy T. Anderson	 ...	Rasta
Andrew Secunda	 ...	Press Conference Reporter
Sara Chase	 ...	Press Conference Reporter
David Gideon	 ...	Mayor
Joshua Church	 ...	Hot Dog Guy (as Josh Church)
Rob Riggle	 ...	Martin
Damon Wayans Jr.	 ...	Fosse
Michael Keaton	 ...	Captain Gene Mauch
Will Ferrell	 ...	Allen Gamble
Mark Wahlberg	 ...	Terry Hoitz

[color=red]GREETZ[/color]

Noir | Joshua08 | bigimac | xXTHORNXx | BMB |

kempas | KaN1vE | mike160 | HiTM4N | HiVE-CM8 |

Lungbuster | skillz | ELEKTRI4KA |

FLAWL3SS | IMAGiNE |  THC | CRYS | iNK |

AND ALL AFFILIATED SITES  


[color=red]SAMPLE INCLUDED![/color][/b]


[img]http://leetleech.org/images/95521316153253938506.png[/img]

[img]http://leetleech.org/images/31210510143435322059.png[/img]
[img]http://leetleech.org/images/91672260042524144009.png[/img]
[img]http://leetleech.org/images/05048423333448787875.png[/img]
[img]http://leetleech.org/images/08270468984858163616.png[/img]
[img]http://leetleech.org/images/01174519899101781779.png[/img]
[img]http://leetleech.org/images/12755021538703799215.png[/img]